<?xml version="1.0" encoding="UTF-8"?>
<!-- Generated by Pixelmator Pro 3.6.18 -->
<svg width="1024" height="1024" viewBox="0 0 1024 1024" xmlns="http://www.w3.org/2000/svg">
    <g id="Components">
        <path id="Path" fill="#000000" stroke="none" d="M 841.833923 127.987793 L 127.983536 842.110291 C 113.534729 856.565125 113.144218 881.176758 127.983536 896.02124 C 143.213409 910.476074 167.424927 910.476074 182.264267 896.02124 L 895.72345 181.89856 C 910.56311 167.444275 910.953369 142.832825 895.72345 127.987793 C 880.884705 113.533386 856.672729 113.142761 841.833923 127.987793 Z M 895.72345 842.110291 L 182.264267 127.987793 C 167.424927 113.533386 142.822876 113.142761 127.983536 127.987793 C 113.534729 143.22345 113.534729 167.444275 127.983536 181.89856 L 841.833923 896.02124 C 856.28241 910.476074 881.275024 910.866455 895.72345 896.02124 C 910.56311 880.785522 910.56311 856.565125 895.72345 842.110291 Z"/>
    </g>
</svg>
